<svg xmlns="http://www.w3.org/2000/svg" xmlns:xlink="http://www.w3.org/1999/xlink" width="1920" height="960" viewBox="0 0 1920 960"><defs><filter id="a" x="1004.35" y="8.35" width="865.52" height="865.52" filterUnits="userSpaceOnUse"><feOffset dy="15" input="SourceAlpha"/><feGaussianBlur stdDeviation="25" result="b"/><feFlood flood-color="#0d2a47" flood-opacity="0.102"/><feComposite operator="in" in2="b"/><feComposite in="SourceGraphic"/></filter><linearGradient id="c" x1="0.5" x2="0.5" y2="1" gradientUnits="objectBoundingBox"><stop offset="0" stop-color="#234567"/><stop offset="1" stop-color="#0d2a47"/></linearGradient><clipPath id="e"><rect width="1920" height="960"/></clipPath></defs><g id="d" clip-path="url(#e)"><rect width="1920" height="960" fill="#f5f8f9"/><g transform="translate(107.765 9.058)"><g transform="translate(1421.498 -16.779)" opacity="0.102"><path d="M221.684,597.034A11.431,11.431,0,1,1,210.255,585.6,11.428,11.428,0,0,1,221.684,597.034Z" transform="translate(-198.822 -585.6)" fill="#0d2a47"/><path d="M235.689,597.028A11.433,11.433,0,1,1,224.255,585.6,11.437,11.437,0,0,1,235.689,597.028Z" transform="translate(-137.813 -585.6)" fill="#0d2a47"/><path d="M249.684,597.029A11.431,11.431,0,1,1,238.255,585.6,11.428,11.428,0,0,1,249.684,597.029Z" transform="translate(-76.805 -585.595)" fill="#0d2a47"/><path d="M263.689,597.028A11.433,11.433,0,1,1,252.261,585.6,11.434,11.434,0,0,1,263.689,597.028Z" transform="translate(-15.796 -585.6)" fill="#0d2a47"/><path d="M277.688,597.029A11.433,11.433,0,1,1,266.26,585.6,11.428,11.428,0,0,1,277.688,597.029Z" transform="translate(45.208 -585.595)" fill="#0d2a47"/><path d="M291.683,597.028A11.431,11.431,0,1,1,280.255,585.6,11.426,11.426,0,0,1,291.683,597.028Z" transform="translate(106.22 -585.6)" fill="#0d2a47"/><path d="M221.684,610.107a11.431,11.431,0,1,1-11.428-11.428A11.429,11.429,0,0,1,221.684,610.107Z" transform="translate(-198.822 -528.605)" fill="#0d2a47"/><path d="M235.689,610.112a11.433,11.433,0,1,1-11.433-11.434A11.44,11.44,0,0,1,235.689,610.112Z" transform="translate(-137.813 -528.609)" fill="#0d2a47"/><path d="M249.684,610.107a11.431,11.431,0,1,1-11.428-11.428A11.429,11.429,0,0,1,249.684,610.107Z" transform="translate(-76.805 -528.605)" fill="#0d2a47"/><path d="M263.689,610.112a11.433,11.433,0,1,1-11.433-11.434A11.441,11.441,0,0,1,263.689,610.112Z" transform="translate(-15.796 -528.609)" fill="#0d2a47"/><path d="M277.693,610.107a11.436,11.436,0,1,1-11.433-11.428A11.437,11.437,0,0,1,277.693,610.107Z" transform="translate(45.208 -528.605)" fill="#0d2a47"/><path d="M291.683,610.107a11.431,11.431,0,1,1-11.428-11.428A11.426,11.426,0,0,1,291.683,610.107Z" transform="translate(106.22 -528.605)" fill="#0d2a47"/><path d="M221.684,623.19a11.431,11.431,0,1,1-11.428-11.433A11.425,11.425,0,0,1,221.684,623.19Z" transform="translate(-198.822 -471.614)" fill="#0d2a47"/><path d="M235.689,623.185a11.433,11.433,0,1,1-11.433-11.428A11.434,11.434,0,0,1,235.689,623.185Z" transform="translate(-137.813 -471.614)" fill="#0d2a47"/><path d="M249.689,623.19a11.433,11.433,0,1,1-11.439-11.433A11.433,11.433,0,0,1,249.689,623.19Z" transform="translate(-76.805 -471.614)" fill="#0d2a47"/><path d="M263.689,623.185a11.433,11.433,0,1,1-11.433-11.428A11.441,11.441,0,0,1,263.689,623.185Z" transform="translate(-15.796 -471.614)" fill="#0d2a47"/><path d="M277.689,623.181a11.433,11.433,0,1,1-11.433-11.423A11.433,11.433,0,0,1,277.689,623.181Z" transform="translate(45.212 -471.61)" fill="#0d2a47"/><path d="M291.683,623.185a11.431,11.431,0,1,1-11.428-11.428A11.423,11.423,0,0,1,291.683,623.185Z" transform="translate(106.22 -471.614)" fill="#0d2a47"/><path d="M221.684,636.269a11.431,11.431,0,1,1-11.428-11.433A11.42,11.42,0,0,1,221.684,636.269Z" transform="translate(-198.822 -414.619)" fill="#0d2a47"/><path d="M235.689,636.269a11.433,11.433,0,1,1-11.433-11.433A11.438,11.438,0,0,1,235.689,636.269Z" transform="translate(-137.813 -414.624)" fill="#0d2a47"/><path d="M249.689,636.264a11.433,11.433,0,1,1-11.439-11.428A11.438,11.438,0,0,1,249.689,636.264Z" transform="translate(-76.805 -414.619)" fill="#0d2a47"/><path d="M263.689,636.269a11.433,11.433,0,1,1-11.433-11.433A11.445,11.445,0,0,1,263.689,636.269Z" transform="translate(-15.796 -414.624)" fill="#0d2a47"/><path d="M277.689,636.26a11.433,11.433,0,1,1-11.433-11.423A11.429,11.429,0,0,1,277.689,636.26Z" transform="translate(45.212 -414.615)" fill="#0d2a47"/><path d="M291.683,636.269a11.431,11.431,0,1,1-11.428-11.433A11.437,11.437,0,0,1,291.683,636.269Z" transform="translate(106.22 -414.624)" fill="#0d2a47"/><path d="M221.684,649.349a11.431,11.431,0,1,1-11.428-11.434A11.42,11.42,0,0,1,221.684,649.349Z" transform="translate(-198.822 -357.624)" fill="#0d2a47"/><path d="M235.689,649.347a11.433,11.433,0,1,1-11.433-11.433A11.437,11.437,0,0,1,235.689,649.347Z" transform="translate(-137.813 -357.629)" fill="#0d2a47"/><path d="M249.689,649.343a11.433,11.433,0,1,1-11.439-11.428A11.437,11.437,0,0,1,249.689,649.343Z" transform="translate(-76.805 -357.624)" fill="#0d2a47"/><path d="M263.689,649.347a11.433,11.433,0,1,1-11.433-11.433A11.444,11.444,0,0,1,263.689,649.347Z" transform="translate(-15.796 -357.629)" fill="#0d2a47"/><path d="M277.689,649.343a11.433,11.433,0,1,1-11.439-11.428A11.428,11.428,0,0,1,277.689,649.343Z" transform="translate(45.212 -357.624)" fill="#0d2a47"/><path d="M291.683,649.347a11.431,11.431,0,1,1-11.428-11.433A11.436,11.436,0,0,1,291.683,649.347Z" transform="translate(106.22 -357.629)" fill="#0d2a47"/><path d="M221.689,662.422a11.433,11.433,0,1,1-11.433-11.428A11.433,11.433,0,0,1,221.689,662.422Z" transform="translate(-198.822 -300.629)" fill="#0d2a47"/><path d="M235.689,662.427a11.433,11.433,0,1,1-11.433-11.434A11.433,11.433,0,0,1,235.689,662.427Z" transform="translate(-137.813 -300.633)" fill="#0d2a47"/><path d="M249.689,662.422a11.433,11.433,0,1,1-11.439-11.428A11.428,11.428,0,0,1,249.689,662.422Z" transform="translate(-76.805 -300.629)" fill="#0d2a47"/><path d="M263.689,662.427a11.433,11.433,0,1,1-11.433-11.434A11.436,11.436,0,0,1,263.689,662.427Z" transform="translate(-15.796 -300.633)" fill="#0d2a47"/><path d="M277.689,662.427a11.433,11.433,0,1,1-11.433-11.434A11.433,11.433,0,0,1,277.689,662.427Z" transform="translate(45.212 -300.633)" fill="#0d2a47"/><path d="M291.683,662.427a11.431,11.431,0,1,1-11.428-11.434A11.425,11.425,0,0,1,291.683,662.427Z" transform="translate(106.22 -300.633)" fill="#0d2a47"/></g><g transform="translate(1191.613 -16.779)" opacity="0.102"><path d="M263.689,597.028A11.433,11.433,0,1,1,252.261,585.6,11.434,11.434,0,0,1,263.689,597.028Z" transform="translate(-240.822 -585.6)" fill="#0d2a47"/><path d="M277.688,597.029A11.433,11.433,0,1,1,266.26,585.6,11.428,11.428,0,0,1,277.688,597.029Z" transform="translate(-179.818 -585.595)" fill="#0d2a47"/><path d="M291.683,597.028A11.431,11.431,0,1,1,280.255,585.6,11.426,11.426,0,0,1,291.683,597.028Z" transform="translate(-118.805 -585.6)" fill="#0d2a47"/><path d="M263.689,610.112a11.433,11.433,0,1,1-11.433-11.434A11.441,11.441,0,0,1,263.689,610.112Z" transform="translate(-240.822 -528.609)" fill="#0d2a47"/><path d="M277.693,610.107a11.436,11.436,0,1,1-11.433-11.428A11.437,11.437,0,0,1,277.693,610.107Z" transform="translate(-179.818 -528.605)" fill="#0d2a47"/><path d="M291.683,610.107a11.431,11.431,0,1,1-11.428-11.428A11.426,11.426,0,0,1,291.683,610.107Z" transform="translate(-118.805 -528.605)" fill="#0d2a47"/><path d="M263.689,623.185a11.433,11.433,0,1,1-11.433-11.428A11.441,11.441,0,0,1,263.689,623.185Z" transform="translate(-240.822 -471.614)" fill="#0d2a47"/><path d="M277.689,623.181a11.433,11.433,0,1,1-11.433-11.423A11.433,11.433,0,0,1,277.689,623.181Z" transform="translate(-179.814 -471.61)" fill="#0d2a47"/><path d="M291.683,623.185a11.431,11.431,0,1,1-11.428-11.428A11.423,11.423,0,0,1,291.683,623.185Z" transform="translate(-118.805 -471.614)" fill="#0d2a47"/><path d="M263.689,636.269a11.433,11.433,0,1,1-11.433-11.433A11.445,11.445,0,0,1,263.689,636.269Z" transform="translate(-240.822 -414.624)" fill="#0d2a47"/><path d="M277.689,636.26a11.433,11.433,0,1,1-11.433-11.423A11.429,11.429,0,0,1,277.689,636.26Z" transform="translate(-179.814 -414.615)" fill="#0d2a47"/><path d="M291.683,636.269a11.431,11.431,0,1,1-11.428-11.433A11.437,11.437,0,0,1,291.683,636.269Z" transform="translate(-118.805 -414.624)" fill="#0d2a47"/><path d="M263.689,649.347a11.433,11.433,0,1,1-11.433-11.433A11.444,11.444,0,0,1,263.689,649.347Z" transform="translate(-240.822 -357.629)" fill="#0d2a47"/><path d="M277.689,649.343a11.433,11.433,0,1,1-11.439-11.428A11.428,11.428,0,0,1,277.689,649.343Z" transform="translate(-179.814 -357.624)" fill="#0d2a47"/><path d="M291.683,649.347a11.431,11.431,0,1,1-11.428-11.433A11.436,11.436,0,0,1,291.683,649.347Z" transform="translate(-118.805 -357.629)" fill="#0d2a47"/><path d="M263.689,662.427a11.433,11.433,0,1,1-11.433-11.434A11.436,11.436,0,0,1,263.689,662.427Z" transform="translate(-240.822 -300.633)" fill="#0d2a47"/><path d="M277.689,662.427a11.433,11.433,0,1,1-11.433-11.434A11.433,11.433,0,0,1,277.689,662.427Z" transform="translate(-179.814 -300.633)" fill="#0d2a47"/><path d="M291.683,662.427a11.431,11.431,0,1,1-11.428-11.434A11.425,11.425,0,0,1,291.683,662.427Z" transform="translate(-118.805 -300.633)" fill="#0d2a47"/></g></g><path d="M68.7-54.6a25.691,25.691,0,0,1,15.375,9.075A25.759,25.759,0,0,1,89.85-28.8q0,13.35-8.925,21.075T55.05,0H9.6V-105.9H54.15q16.05,0,24.675,7.05t8.625,19.8q0,9.9-5.175,16.2A24.067,24.067,0,0,1,68.7-54.6ZM30.75-61.5H49.8q7.95,0,12.075-3.525T66-75.15q0-6.6-4.05-10.2T49.5-88.95H30.75Zm20.1,44.25q8.4,0,12.9-3.675t4.5-10.725q0-7.05-4.575-10.875T50.7-46.35H30.75v29.1Zm88.5-66.9a46.081,46.081,0,0,1,21.825,5.1A37.327,37.327,0,0,1,176.4-64.275q5.55,9.675,5.55,22.725T176.4-18.9A37.965,37.965,0,0,1,161.175-4.125,45.538,45.538,0,0,1,139.35,1.05a45.538,45.538,0,0,1-21.825-5.175A37.965,37.965,0,0,1,102.3-18.9q-5.55-9.6-5.55-22.65t5.55-22.725A37.327,37.327,0,0,1,117.525-79.05,46.081,46.081,0,0,1,139.35-84.15Zm0,18.3a20.286,20.286,0,0,0-15,6.225Q118.2-53.4,118.2-41.55t6.15,18.075a20.286,20.286,0,0,0,15,6.225,20.286,20.286,0,0,0,15-6.225Q160.5-29.7,160.5-41.55t-6.15-18.075A20.286,20.286,0,0,0,139.35-65.85ZM312.15-83.1,289.8,0H266.4L248.55-60.45,230.25,0h-23.4l-22.2-83.1H205.8l13.5,64.2,18.45-64.2H260.1l18.6,64.2,13.65-64.2Zm35.4-1.05q15.15,0,24.3,7.65t11.4,20.4h-19.8a16.461,16.461,0,0,0-5.4-9.6q-4.2-3.6-10.95-3.6-5.4,0-8.4,2.55a8.587,8.587,0,0,0-3,6.9,7.014,7.014,0,0,0,2.4,5.55,17.289,17.289,0,0,0,6,3.3q3.6,1.2,10.35,2.85a106.436,106.436,0,0,1,15.375,4.425,25.44,25.44,0,0,1,10.2,7.35Q384.3-31.35,384.3-22.8a20.971,20.971,0,0,1-8.325,17.25q-8.325,6.6-22.425,6.6-16.2,0-25.95-7.275T315.75-27H336a13.684,13.684,0,0,0,5.4,9.675q4.65,3.525,12.15,3.525,5.4,0,8.25-2.625a8.85,8.85,0,0,0,2.85-6.825,7.539,7.539,0,0,0-2.475-5.85,16.708,16.708,0,0,0-6.15-3.45q-3.675-1.2-10.425-2.85a117.5,117.5,0,0,1-15.075-4.275,24.07,24.07,0,0,1-9.9-6.975q-4.125-4.8-4.125-13.2a21.611,21.611,0,0,1,8.25-17.55Q333-84.15,347.55-84.15ZM474.45-44.7a40.043,40.043,0,0,1-.75,7.2H412.8q.45,11.1,6,16.35a19.3,19.3,0,0,0,13.8,5.25,20.022,20.022,0,0,0,12.225-3.6,15.946,15.946,0,0,0,6.225-9.75H473.4a35.756,35.756,0,0,1-7.05,15.6,36.841,36.841,0,0,1-13.875,10.8,44.5,44.5,0,0,1-18.825,3.9,44.233,44.233,0,0,1-21.6-5.175A36.377,36.377,0,0,1,397.35-18.9q-5.25-9.6-5.25-22.65t5.25-22.725a35.782,35.782,0,0,1,14.7-14.775,44.758,44.758,0,0,1,21.6-5.1,43.778,43.778,0,0,1,21.525,5.1,35.946,35.946,0,0,1,14.25,14.025A40.706,40.706,0,0,1,474.45-44.7Zm-21.3-2.1q.45-10.2-5.325-15.45A20.3,20.3,0,0,0,433.65-67.5a20.775,20.775,0,0,0-14.4,5.25Q413.4-57,412.8-46.8Zm53.7-20.4a34.761,34.761,0,0,1,12.3-12.525,32.676,32.676,0,0,1,17.1-4.575v22.65H530.1q-23.25,0-23.25,21.6V0H485.7V-83.1h21.15Z" transform="translate(150 403)" fill="#0d2a47"/><path d="M9.84-37.86V-23.4H25.92v4.2H9.84V-4.44H27.72V0H4.38V-42.3H27.72v4.44Zm36.9,4.5a13.535,13.535,0,0,1,8.13,2.4,12.508,12.508,0,0,1,4.65,6.42v-8.4h5.46V0H59.52V-8.4a12.508,12.508,0,0,1-4.65,6.42A13.535,13.535,0,0,1,46.74.42a14.931,14.931,0,0,1-7.8-2.04,14.11,14.11,0,0,1-5.37-5.85,19.447,19.447,0,0,1-1.95-8.97,19.633,19.633,0,0,1,1.95-9,14.071,14.071,0,0,1,5.37-5.88A14.931,14.931,0,0,1,46.74-33.36ZM48.3-28.5a10.575,10.575,0,0,0-8.07,3.21q-3.03,3.21-3.03,8.85t3.03,8.85A10.575,10.575,0,0,0,48.3-4.38a11.2,11.2,0,0,0,5.79-1.5,10.443,10.443,0,0,0,3.99-4.23,13.372,13.372,0,0,0,1.44-6.33,13.552,13.552,0,0,0-1.44-6.36,10.2,10.2,0,0,0-3.99-4.23A11.382,11.382,0,0,0,48.3-28.5Zm34.2-4.86a13.294,13.294,0,0,1,8.97,2.91,12.257,12.257,0,0,1,4.11,7.83H90.36a7.559,7.559,0,0,0-2.43-4.83,7.914,7.914,0,0,0-5.55-1.89,6.847,6.847,0,0,0-4.59,1.41,4.753,4.753,0,0,0-1.65,3.81,3.935,3.935,0,0,0,1.11,2.91,7.122,7.122,0,0,0,2.76,1.68,46.043,46.043,0,0,0,4.53,1.23,44.5,44.5,0,0,1,5.91,1.71,9.258,9.258,0,0,1,3.84,2.79,7.839,7.839,0,0,1,1.59,5.16A8.108,8.108,0,0,1,92.85-2.1,12.217,12.217,0,0,1,84.78.42a15.458,15.458,0,0,1-9.6-2.82,11.248,11.248,0,0,1-4.38-7.86h5.28A6.875,6.875,0,0,0,78.69-5.4a9.417,9.417,0,0,0,6.09,1.86,6.331,6.331,0,0,0,4.41-1.44,4.858,4.858,0,0,0,1.59-3.78,4.135,4.135,0,0,0-1.14-3.06,7.476,7.476,0,0,0-2.82-1.74,41.244,41.244,0,0,0-4.62-1.26,45.087,45.087,0,0,1-5.85-1.68,8.965,8.965,0,0,1-3.72-2.67,7.475,7.475,0,0,1-1.53-4.95,8.286,8.286,0,0,1,3.06-6.69Q77.22-33.36,82.5-33.36Zm18.24-9.24a3.134,3.134,0,0,1,1.02-2.43,3.852,3.852,0,0,1,2.7-.93,3.852,3.852,0,0,1,2.7.93,3.134,3.134,0,0,1,1.02,2.43,3.134,3.134,0,0,1-1.02,2.43,3.852,3.852,0,0,1-2.7.93,3.852,3.852,0,0,1-2.7-.93A3.134,3.134,0,0,1,100.74-42.6Zm6.42,9.66V0H101.7V-32.94ZM119.88-44.4V0h-5.46V-44.4Zm9.54,11.46L140.1-7.02,150-32.94h6.06L136.5,15.6h-6.18L137.16-.54,123.3-32.94Zm56.94-.42a13.535,13.535,0,0,1,8.13,2.4,12.508,12.508,0,0,1,4.65,6.42V-44.4h5.46V0h-5.46V-8.4a12.508,12.508,0,0,1-4.65,6.42,13.535,13.535,0,0,1-8.13,2.4,14.931,14.931,0,0,1-7.8-2.04,14.11,14.11,0,0,1-5.37-5.85,19.447,19.447,0,0,1-1.95-8.97,19.633,19.633,0,0,1,1.95-9,14.071,14.071,0,0,1,5.37-5.88A14.931,14.931,0,0,1,186.36-33.36Zm1.56,4.86a10.575,10.575,0,0,0-8.07,3.21q-3.03,3.21-3.03,8.85t3.03,8.85a10.575,10.575,0,0,0,8.07,3.21,11.2,11.2,0,0,0,5.79-1.5,10.443,10.443,0,0,0,3.99-4.23,13.372,13.372,0,0,0,1.44-6.33,13.552,13.552,0,0,0-1.44-6.36,10.2,10.2,0,0,0-3.99-4.23A11.382,11.382,0,0,0,187.92-28.5ZM242.1-18.3a16.259,16.259,0,0,1-.24,3H215.52q.18,5.64,3.21,8.46a10.475,10.475,0,0,0,7.41,2.82,10.709,10.709,0,0,0,6.63-2.01,8.31,8.31,0,0,0,3.27-5.37h5.82a13.836,13.836,0,0,1-2.67,6.12,13.855,13.855,0,0,1-5.37,4.2,17.784,17.784,0,0,1-7.44,1.5,16.962,16.962,0,0,1-8.4-2.04,14.416,14.416,0,0,1-5.73-5.85,18.512,18.512,0,0,1-2.07-8.97,18.688,18.688,0,0,1,2.07-9,14.37,14.37,0,0,1,5.73-5.88,16.962,16.962,0,0,1,8.4-2.04,16.582,16.582,0,0,1,8.37,2.04,14.046,14.046,0,0,1,5.46,5.46A15.367,15.367,0,0,1,242.1-18.3Zm-5.52.36a11.206,11.206,0,0,0-1.2-6.12,8.773,8.773,0,0,0-3.78-3.66,11.508,11.508,0,0,0-5.22-1.2,10.8,10.8,0,0,0-7.56,2.79q-3.06,2.79-3.3,8.19ZM263.46-4.8V0h-4.08q-5.04,0-7.53-2.4t-2.49-8.04V-28.2h-4.92v-4.74h4.92v-8.22h5.52v8.22h8.52v4.74h-8.52v17.88q0,3.18,1.17,4.35T260.1-4.8Zm35.46-13.5a16.259,16.259,0,0,1-.24,3H272.34q.18,5.64,3.21,8.46a10.474,10.474,0,0,0,7.41,2.82,10.71,10.71,0,0,0,6.63-2.01,8.31,8.31,0,0,0,3.27-5.37h5.82a13.836,13.836,0,0,1-2.67,6.12,13.854,13.854,0,0,1-5.37,4.2A17.784,17.784,0,0,1,283.2.42a16.962,16.962,0,0,1-8.4-2.04,14.416,14.416,0,0,1-5.73-5.85A18.513,18.513,0,0,1,267-16.44a18.688,18.688,0,0,1,2.07-9,14.37,14.37,0,0,1,5.73-5.88,16.962,16.962,0,0,1,8.4-2.04,16.582,16.582,0,0,1,8.37,2.04,14.046,14.046,0,0,1,5.46,5.46A15.367,15.367,0,0,1,298.92-18.3Zm-5.52.36a11.206,11.206,0,0,0-1.2-6.12,8.773,8.773,0,0,0-3.78-3.66,11.508,11.508,0,0,0-5.22-1.2,10.8,10.8,0,0,0-7.56,2.79q-3.06,2.79-3.3,8.19Zm25.74-15.42A16.03,16.03,0,0,1,329.58-30a14.233,14.233,0,0,1,5.1,9h-5.76a8.421,8.421,0,0,0-3.27-5.55,10.709,10.709,0,0,0-6.63-2.01,10.605,10.605,0,0,0-5.25,1.32,9.6,9.6,0,0,0-3.81,4.05,14.342,14.342,0,0,0-1.44,6.75,14.342,14.342,0,0,0,1.44,6.75,9.6,9.6,0,0,0,3.81,4.05,10.605,10.605,0,0,0,5.25,1.32,10.6,10.6,0,0,0,6.63-2.04,8.535,8.535,0,0,0,3.27-5.58h5.76a14.152,14.152,0,0,1-5.1,9.03A16.126,16.126,0,0,1,319.14.42a16.962,16.962,0,0,1-8.4-2.04,14.416,14.416,0,0,1-5.73-5.85,18.513,18.513,0,0,1-2.07-8.97,18.688,18.688,0,0,1,2.07-9,14.37,14.37,0,0,1,5.73-5.88A16.962,16.962,0,0,1,319.14-33.36ZM356.04-4.8V0h-4.08q-5.04,0-7.53-2.4t-2.49-8.04V-28.2h-4.92v-4.74h4.92v-8.22h5.52v8.22h8.52v4.74h-8.52v17.88q0,3.18,1.17,4.35t4.05,1.17Zm31.98-28.56a13.535,13.535,0,0,1,8.13,2.4,12.508,12.508,0,0,1,4.65,6.42V-44.4h5.46V0H400.8V-8.4a12.508,12.508,0,0,1-4.65,6.42,13.535,13.535,0,0,1-8.13,2.4,14.931,14.931,0,0,1-7.8-2.04,14.11,14.11,0,0,1-5.37-5.85,19.447,19.447,0,0,1-1.95-8.97,19.634,19.634,0,0,1,1.95-9,14.071,14.071,0,0,1,5.37-5.88A14.931,14.931,0,0,1,388.02-33.36Zm1.56,4.86a10.575,10.575,0,0,0-8.07,3.21q-3.03,3.21-3.03,8.85t3.03,8.85a10.575,10.575,0,0,0,8.07,3.21,11.2,11.2,0,0,0,5.79-1.5,10.443,10.443,0,0,0,3.99-4.23,13.372,13.372,0,0,0,1.44-6.33,13.552,13.552,0,0,0-1.44-6.36,10.2,10.2,0,0,0-3.99-4.23A11.382,11.382,0,0,0,389.58-28.5Zm54.18,10.2a16.259,16.259,0,0,1-.24,3H417.18q.18,5.64,3.21,8.46a10.474,10.474,0,0,0,7.41,2.82,10.71,10.71,0,0,0,6.63-2.01,8.31,8.31,0,0,0,3.27-5.37h5.82a13.836,13.836,0,0,1-2.67,6.12,13.854,13.854,0,0,1-5.37,4.2,17.784,17.784,0,0,1-7.44,1.5,16.962,16.962,0,0,1-8.4-2.04,14.416,14.416,0,0,1-5.73-5.85,18.513,18.513,0,0,1-2.07-8.97,18.688,18.688,0,0,1,2.07-9,14.37,14.37,0,0,1,5.73-5.88,16.962,16.962,0,0,1,8.4-2.04,16.582,16.582,0,0,1,8.37,2.04,14.046,14.046,0,0,1,5.46,5.46A15.367,15.367,0,0,1,443.76-18.3Zm-5.52.36a11.206,11.206,0,0,0-1.2-6.12,8.773,8.773,0,0,0-3.78-3.66,11.508,11.508,0,0,0-5.22-1.2,10.8,10.8,0,0,0-7.56,2.79q-3.06,2.79-3.3,8.19ZM462.18-5.82l10.2-27.12h5.88L465.36,0h-6.48l-12.9-32.94h5.88ZM481.14-42.6a3.134,3.134,0,0,1,1.02-2.43,3.852,3.852,0,0,1,2.7-.93,3.852,3.852,0,0,1,2.7.93,3.134,3.134,0,0,1,1.02,2.43,3.134,3.134,0,0,1-1.02,2.43,3.852,3.852,0,0,1-2.7.93,3.852,3.852,0,0,1-2.7-.93A3.134,3.134,0,0,1,481.14-42.6Zm6.42,9.66V0H482.1V-32.94Zm21.84-.42A16.031,16.031,0,0,1,519.84-30a14.233,14.233,0,0,1,5.1,9h-5.76a8.421,8.421,0,0,0-3.27-5.55,10.709,10.709,0,0,0-6.63-2.01,10.605,10.605,0,0,0-5.25,1.32,9.6,9.6,0,0,0-3.81,4.05,14.342,14.342,0,0,0-1.44,6.75,14.342,14.342,0,0,0,1.44,6.75,9.6,9.6,0,0,0,3.81,4.05,10.605,10.605,0,0,0,5.25,1.32,10.6,10.6,0,0,0,6.63-2.04,8.535,8.535,0,0,0,3.27-5.58h5.76a14.153,14.153,0,0,1-5.1,9.03A16.126,16.126,0,0,1,509.4.42,16.962,16.962,0,0,1,501-1.62a14.416,14.416,0,0,1-5.73-5.85,18.513,18.513,0,0,1-2.07-8.97,18.688,18.688,0,0,1,2.07-9A14.37,14.37,0,0,1,501-31.32,16.962,16.962,0,0,1,509.4-33.36ZM560.88-18.3a16.262,16.262,0,0,1-.24,3H534.3q.18,5.64,3.21,8.46a10.475,10.475,0,0,0,7.41,2.82,10.709,10.709,0,0,0,6.63-2.01,8.31,8.31,0,0,0,3.27-5.37h5.82a13.835,13.835,0,0,1-2.67,6.12,13.855,13.855,0,0,1-5.37,4.2,17.784,17.784,0,0,1-7.44,1.5,16.962,16.962,0,0,1-8.4-2.04,14.416,14.416,0,0,1-5.73-5.85,18.512,18.512,0,0,1-2.07-8.97,18.688,18.688,0,0,1,2.07-9,14.37,14.37,0,0,1,5.73-5.88,16.962,16.962,0,0,1,8.4-2.04,16.582,16.582,0,0,1,8.37,2.04,14.045,14.045,0,0,1,5.46,5.46A15.367,15.367,0,0,1,560.88-18.3Zm-5.52.36a11.206,11.206,0,0,0-1.2-6.12,8.772,8.772,0,0,0-3.78-3.66,11.508,11.508,0,0,0-5.22-1.2,10.8,10.8,0,0,0-7.56,2.79q-3.06,2.79-3.3,8.19ZM578.88-42.6a3.134,3.134,0,0,1,1.02-2.43,3.852,3.852,0,0,1,2.7-.93,3.852,3.852,0,0,1,2.7.93,3.134,3.134,0,0,1,1.02,2.43,3.134,3.134,0,0,1-1.02,2.43,3.852,3.852,0,0,1-2.7.93,3.852,3.852,0,0,1-2.7-.93A3.134,3.134,0,0,1,578.88-42.6Zm6.42,9.66V0h-5.46V-32.94Zm24.6-.54a12.3,12.3,0,0,1,9.3,3.69q3.54,3.69,3.54,10.65V0h-5.46V-18.66q0-4.92-2.52-7.56a9.009,9.009,0,0,0-6.84-2.64,9.352,9.352,0,0,0-7.2,2.91q-2.7,2.91-2.7,8.49V0h-5.46V-32.94h5.46v7.8a11.221,11.221,0,0,1,4.47-6.18A12.959,12.959,0,0,1,609.9-33.48Zm34.32-7.26q-4.38-.06-6.09,1.5t-1.71,5.4v.9h7.8v4.8h-7.8V0h-5.46V-28.14h-4.74v-4.8h4.74v-1.32q0-11.82,13.26-11.28Zm19.38,7.38a17.476,17.476,0,0,1,8.49,2.04,14.6,14.6,0,0,1,5.88,5.88,18.26,18.26,0,0,1,2.13,9,18.089,18.089,0,0,1-2.13,8.97,14.648,14.648,0,0,1-5.88,5.85A17.476,17.476,0,0,1,663.6.42a17.476,17.476,0,0,1-8.49-2.04,14.845,14.845,0,0,1-5.91-5.85,17.886,17.886,0,0,1-2.16-8.97,18.055,18.055,0,0,1,2.16-9,14.794,14.794,0,0,1,5.91-5.88A17.476,17.476,0,0,1,663.6-33.36Zm0,4.8a11.413,11.413,0,0,0-5.43,1.32,9.924,9.924,0,0,0-4.02,4.05,13.641,13.641,0,0,0-1.53,6.75,13.507,13.507,0,0,0,1.53,6.69,9.924,9.924,0,0,0,4.02,4.05,11.413,11.413,0,0,0,5.43,1.32,11.413,11.413,0,0,0,5.43-1.32,9.924,9.924,0,0,0,4.02-4.05,13.507,13.507,0,0,0,1.53-6.69,13.641,13.641,0,0,0-1.53-6.75,9.924,9.924,0,0,0-4.02-4.05A11.413,11.413,0,0,0,663.6-28.56Zm27.6,2.28a12.115,12.115,0,0,1,4.74-5.31,14.088,14.088,0,0,1,7.44-1.89v5.94H701.7a11.666,11.666,0,0,0-7.56,2.37q-2.94,2.37-2.94,7.83V0h-5.46V-32.94h5.46Zm56.58-7.2a12.2,12.2,0,0,1,9.27,3.69q3.51,3.69,3.51,10.65V0H755.1V-18.66q0-4.86-2.37-7.44a8.4,8.4,0,0,0-6.51-2.58,8.945,8.945,0,0,0-6.93,2.85q-2.61,2.85-2.61,8.37V0h-5.46V-18.66q0-4.86-2.4-7.44a8.422,8.422,0,0,0-6.48-2.58,9.017,9.017,0,0,0-6.99,2.85q-2.61,2.85-2.61,8.37V0h-5.46V-32.94h5.46v7.5a10.7,10.7,0,0,1,4.29-5.97,12.475,12.475,0,0,1,7.11-2.07,12.526,12.526,0,0,1,7.29,2.13,11.59,11.59,0,0,1,4.41,6.27,11.907,11.907,0,0,1,4.62-6.21A12.771,12.771,0,0,1,747.78-33.48Zm33.24.12a13.535,13.535,0,0,1,8.13,2.4,12.508,12.508,0,0,1,4.65,6.42v-8.4h5.46V0H793.8V-8.4a12.508,12.508,0,0,1-4.65,6.42,13.535,13.535,0,0,1-8.13,2.4,14.931,14.931,0,0,1-7.8-2.04,14.109,14.109,0,0,1-5.37-5.85,19.447,19.447,0,0,1-1.95-8.97,19.634,19.634,0,0,1,1.95-9,14.07,14.07,0,0,1,5.37-5.88A14.931,14.931,0,0,1,781.02-33.36Zm1.56,4.86a10.575,10.575,0,0,0-8.07,3.21q-3.03,3.21-3.03,8.85t3.03,8.85a10.575,10.575,0,0,0,8.07,3.21,11.2,11.2,0,0,0,5.79-1.5,10.442,10.442,0,0,0,3.99-4.23,13.371,13.371,0,0,0,1.44-6.33,13.552,13.552,0,0,0-1.44-6.36,10.2,10.2,0,0,0-3.99-4.23A11.382,11.382,0,0,0,782.58-28.5Zm39.6,23.7V0H818.1q-5.04,0-7.53-2.4t-2.49-8.04V-28.2h-4.92v-4.74h4.92v-8.22h5.52v8.22h8.52v4.74H813.6v17.88q0,3.18,1.17,4.35t4.05,1.17Zm4.2-37.8a3.134,3.134,0,0,1,1.02-2.43,3.852,3.852,0,0,1,2.7-.93,3.852,3.852,0,0,1,2.7.93,3.134,3.134,0,0,1,1.02,2.43,3.134,3.134,0,0,1-1.02,2.43,3.852,3.852,0,0,1-2.7.93,3.852,3.852,0,0,1-2.7-.93A3.134,3.134,0,0,1,826.38-42.6Zm6.42,9.66V0h-5.46V-32.94Zm22.2-.42a17.476,17.476,0,0,1,8.49,2.04,14.6,14.6,0,0,1,5.88,5.88,18.26,18.26,0,0,1,2.13,9,18.089,18.089,0,0,1-2.13,8.97,14.648,14.648,0,0,1-5.88,5.85A17.476,17.476,0,0,1,855,.42a17.476,17.476,0,0,1-8.49-2.04,14.845,14.845,0,0,1-5.91-5.85,17.886,17.886,0,0,1-2.16-8.97,18.055,18.055,0,0,1,2.16-9,14.794,14.794,0,0,1,5.91-5.88A17.476,17.476,0,0,1,855-33.36Zm0,4.8a11.413,11.413,0,0,0-5.43,1.32,9.924,9.924,0,0,0-4.02,4.05,13.641,13.641,0,0,0-1.53,6.75,13.507,13.507,0,0,0,1.53,6.69,9.924,9.924,0,0,0,4.02,4.05A11.413,11.413,0,0,0,855-4.38a11.413,11.413,0,0,0,5.43-1.32,9.924,9.924,0,0,0,4.02-4.05,13.507,13.507,0,0,0,1.53-6.69,13.641,13.641,0,0,0-1.53-6.75,9.924,9.924,0,0,0-4.02-4.05A11.413,11.413,0,0,0,855-28.56Zm39.48-4.92a12.3,12.3,0,0,1,9.3,3.69q3.54,3.69,3.54,10.65V0h-5.46V-18.66q0-4.92-2.52-7.56a9.009,9.009,0,0,0-6.84-2.64,9.352,9.352,0,0,0-7.2,2.91q-2.7,2.91-2.7,8.49V0h-5.46V-32.94h5.46v7.8a11.221,11.221,0,0,1,4.47-6.18A12.959,12.959,0,0,1,894.48-33.48Zm30.06.12a13.294,13.294,0,0,1,8.97,2.91,12.257,12.257,0,0,1,4.11,7.83H932.4a7.559,7.559,0,0,0-2.43-4.83,7.914,7.914,0,0,0-5.55-1.89,6.847,6.847,0,0,0-4.59,1.41,4.753,4.753,0,0,0-1.65,3.81,3.935,3.935,0,0,0,1.11,2.91,7.122,7.122,0,0,0,2.76,1.68,46.042,46.042,0,0,0,4.53,1.23,44.5,44.5,0,0,1,5.91,1.71,9.257,9.257,0,0,1,3.84,2.79,7.839,7.839,0,0,1,1.59,5.16,8.108,8.108,0,0,1-3.03,6.54A12.217,12.217,0,0,1,926.82.42a15.458,15.458,0,0,1-9.6-2.82,11.248,11.248,0,0,1-4.38-7.86h5.28a6.875,6.875,0,0,0,2.61,4.86,9.417,9.417,0,0,0,6.09,1.86,6.331,6.331,0,0,0,4.41-1.44,4.858,4.858,0,0,0,1.59-3.78,4.135,4.135,0,0,0-1.14-3.06,7.476,7.476,0,0,0-2.82-1.74,41.242,41.242,0,0,0-4.62-1.26,45.088,45.088,0,0,1-5.85-1.68,8.964,8.964,0,0,1-3.72-2.67,7.475,7.475,0,0,1-1.53-4.95,8.286,8.286,0,0,1,3.06-6.69Q919.26-33.36,924.54-33.36ZM947.76-6.42V0h-6.6V-6.42Z" transform="translate(150 817)" fill="#0d2a47"/><path d="M99.3,0H78.15L30.75-72V0H9.6V-105.9H30.75l47.4,72.6v-72.6H99.3Zm94.95-83.1V0H173.1V-16.8A26.476,26.476,0,0,1,162.225-3.675,32.327,32.327,0,0,1,144.75,1.05q-14.4,0-22.95-9.45t-8.55-26.4V-83.1h21v45.9q0,9.9,5.1,15.375t13.8,5.475q9.15,0,14.55-5.85T173.1-39V-83.1Zm66,83.1-18.9-26.7L225.45,0H202.2l27.45-43.35L201.6-83.1h23.7l18.45,26.25,15.9-26.25H282.9L255-40.95,283.95,0ZM335.4-18.15V0H324.3q-13.95,0-21.375-6.75T295.5-29.25v-36H283.95V-83.1H295.5v-20.55h21.15V-83.1h18.6v17.85h-18.6v36.3q0,6,2.4,8.4t8.1,2.4Z" transform="translate(150 273)" fill="#0d2a47"/><rect width="201" height="86" rx="43" transform="translate(150 532)" fill="#00ffb0"/><rect width="291" height="86" rx="43" transform="translate(655 532)" fill="#00ffb0"/><rect width="244" height="86" rx="43" transform="translate(381 532)" fill="#00ffb0"/><path d="M-34.924-17.121l-1.17,5.343h5.031v4.992h-6.084L-38.59,0H-43.7l1.443-6.786h-7.176L-50.875,0h-5.109l1.443-6.786h-5.85v-4.992h6.9l1.17-5.343h-5.694v-4.992h6.747l1.443-6.747h5.109l-1.443,6.747h7.176l1.443-6.747h5.109l-1.443,6.747h5.187v4.992Zm-5.109,0h-7.176l-1.17,5.343H-41.2Zm30.81-10.413v4.368H-20.806V-15.8h9.282v4.212h-9.282V0h-5.5V-27.534Zm19.5,22H-.761L-2.711,0H-8.522L1.618-27.222H7.9L18,0H12.187ZM8.794-9.711,4.738-21.333.682-9.711ZM38.9-7.527a7.466,7.466,0,0,1-1.053,3.88A7.563,7.563,0,0,1,34.729-.8,10.817,10.817,0,0,1,29.7.273a13.055,13.055,0,0,1-5.226-.995,8.836,8.836,0,0,1-3.686-2.867,8.269,8.269,0,0,1-1.58-4.368h5.85A4.47,4.47,0,0,0,26.4-5.167a4.22,4.22,0,0,0,3.062,1.111A3.563,3.563,0,0,0,32.1-4.972a3.194,3.194,0,0,0,.917-2.359,3.091,3.091,0,0,0-.741-2.126A5.407,5.407,0,0,0,30.4-10.8q-1.131-.507-3.12-1.17a30.842,30.842,0,0,1-4.212-1.7,7.786,7.786,0,0,1-2.788-2.438,6.983,6.983,0,0,1-1.15-4.173,6.785,6.785,0,0,1,2.555-5.6,10.5,10.5,0,0,1,6.766-2.048,10.717,10.717,0,0,1,6.961,2.106A7.949,7.949,0,0,1,38.356-20.2H32.428a4.129,4.129,0,0,0-1.248-2.437,3.875,3.875,0,0,0-2.769-.956,3.652,3.652,0,0,0-2.457.8,2.883,2.883,0,0,0-.936,2.321,2.885,2.885,0,0,0,.722,2.008,5.506,5.506,0,0,0,1.833,1.307A30.086,30.086,0,0,0,30.6-16.029a40.185,40.185,0,0,1,4.31,1.755,7.593,7.593,0,0,1,2.827,2.457A7.22,7.22,0,0,1,38.9-7.527ZM60.7-27.534v4.368H53.1V0H47.6V-23.166H40.034v-4.368Z" transform="translate(249 589)" fill="#fff"/><path d="M-85.117-17.121l-1.17,5.343h5.031v4.992H-87.34L-88.784,0h-5.109l1.443-6.786h-7.176L-101.068,0h-5.109l1.443-6.786h-5.85v-4.992h6.9l1.17-5.343h-5.694v-4.992h6.747l1.443-6.747h5.109l-1.443,6.747h7.176l1.443-6.747h5.109l-1.443,6.747h5.187v4.992Zm-5.109,0H-97.4l-1.17,5.343H-91.4Zm37.947,3.315A14.729,14.729,0,0,1-54-6.591a11.942,11.942,0,0,1-4.973,4.856A16.243,16.243,0,0,1-66.709,0H-76.5V-27.534h9.789a16.551,16.551,0,0,1,7.741,1.7A11.734,11.734,0,0,1-54-21.041,14.7,14.7,0,0,1-52.279-13.806Zm-14.9,8.892a9.539,9.539,0,0,0,6.883-2.34,8.654,8.654,0,0,0,2.438-6.552A8.707,8.707,0,0,0-60.294-20.4a9.539,9.539,0,0,0-6.883-2.34H-71V-4.914Zm23.556-18.252v7.137h9.75v4.212h-9.75v7.41H-32.7V0H-49.12V-27.534H-32.7v4.368ZM-10.9-27.534v4.368h-7.605V0H-24V-23.166h-7.566v-4.368Zm7.566,4.368v7.137h9.75v4.212h-9.75v7.41H7.586V0H-8.833V-27.534H7.586v4.368Zm26.442-4.641a13.449,13.449,0,0,1,8.541,2.652,12.542,12.542,0,0,1,4.485,7.215H30.362a7.552,7.552,0,0,0-2.788-3.51,7.882,7.882,0,0,0-4.543-1.287,7.3,7.3,0,0,0-3.939,1.092,7.288,7.288,0,0,0-2.73,3.12,10.871,10.871,0,0,0-.975,4.758,10.774,10.774,0,0,0,.975,4.719,7.288,7.288,0,0,0,2.73,3.12A7.3,7.3,0,0,0,23.03-4.836a7.882,7.882,0,0,0,4.543-1.287,7.552,7.552,0,0,0,2.788-3.51h5.772a12.542,12.542,0,0,1-4.485,7.215A13.449,13.449,0,0,1,23.108.234a13.492,13.492,0,0,1-6.962-1.775,12.082,12.082,0,0,1-4.68-4.972,15.532,15.532,0,0,1-1.657-7.254,15.618,15.618,0,0,1,1.657-7.293,12.121,12.121,0,0,1,4.66-4.972A13.465,13.465,0,0,1,23.108-27.807Zm34.905.273v4.368H50.408V0h-5.5V-23.166H37.343v-4.368Zm14.976-.39a13.858,13.858,0,0,1,7,1.794,13.014,13.014,0,0,1,4.953,5.012,14.553,14.553,0,0,1,1.814,7.274,14.662,14.662,0,0,1-1.814,7.293,12.977,12.977,0,0,1-4.953,5.031,13.858,13.858,0,0,1-7,1.794,13.858,13.858,0,0,1-7-1.794,12.977,12.977,0,0,1-4.953-5.031,14.662,14.662,0,0,1-1.813-7.293,14.553,14.553,0,0,1,1.813-7.274,13.014,13.014,0,0,1,4.953-5.012A13.858,13.858,0,0,1,72.989-27.924Zm0,5.07a8.147,8.147,0,0,0-4.251,1.092,7.471,7.471,0,0,0-2.867,3.14,10.471,10.471,0,0,0-1.034,4.778,10.471,10.471,0,0,0,1.034,4.777,7.471,7.471,0,0,0,2.867,3.14,8.147,8.147,0,0,0,4.251,1.092A8.147,8.147,0,0,0,77.24-5.928a7.471,7.471,0,0,0,2.867-3.14,10.471,10.471,0,0,0,1.034-4.777,10.471,10.471,0,0,0-1.034-4.778,7.471,7.471,0,0,0-2.867-3.14A8.147,8.147,0,0,0,72.989-22.854ZM104.266,0,97.831-10.725H95.413V0h-5.5V-27.534h10.491q4.8,0,7.313,2.34a8.021,8.021,0,0,1,2.515,6.162,7.945,7.945,0,0,1-1.735,5.226A8.564,8.564,0,0,1,103.486-11L110.35,0ZM95.413-14.508h4.524q4.719,0,4.719-4.173a4.11,4.11,0,0,0-1.15-3.1,4.974,4.974,0,0,0-3.569-1.111H95.413Z" transform="translate(798 589)" fill="#fff"/><path d="M-55.907-17.121l-1.17,5.343h5.031v4.992H-58.13L-59.573,0h-5.109l1.443-6.786h-7.176L-71.858,0h-5.109l1.443-6.786h-5.85v-4.992h6.9l1.17-5.343h-5.694v-4.992h6.747L-70.8-28.86H-65.7l-1.443,6.747h7.176l1.443-6.747h5.109l-1.443,6.747h5.187v4.992Zm-5.109,0h-7.176l-1.17,5.343h7.176Zm37.947,3.315a14.729,14.729,0,0,1-1.716,7.215,11.942,11.942,0,0,1-4.972,4.856A16.243,16.243,0,0,1-37.5,0h-9.789V-27.534H-37.5a16.551,16.551,0,0,1,7.741,1.7,11.734,11.734,0,0,1,4.972,4.8A14.7,14.7,0,0,1-23.069-13.806Zm-14.9,8.892a9.539,9.539,0,0,0,6.883-2.34,8.654,8.654,0,0,0,2.438-6.552A8.707,8.707,0,0,0-31.083-20.4a9.539,9.539,0,0,0-6.883-2.34h-3.822V-4.914Zm23.556-18.252v7.137h9.75v4.212h-9.75v7.41h10.92V0H-19.91V-27.534H-3.491v4.368ZM3.451-27.534l7.371,21.8,7.41-21.8h5.889L14.371,0H7.312l-9.75-27.534Zm28.158,0V0h-5.5V-27.534Zm16.458-.273a13.449,13.449,0,0,1,8.541,2.652,12.542,12.542,0,0,1,4.485,7.215H55.321a7.552,7.552,0,0,0-2.789-3.51,7.882,7.882,0,0,0-4.543-1.287,7.3,7.3,0,0,0-3.939,1.092,7.288,7.288,0,0,0-2.73,3.12,10.871,10.871,0,0,0-.975,4.758,10.774,10.774,0,0,0,.975,4.719,7.288,7.288,0,0,0,2.73,3.12,7.3,7.3,0,0,0,3.939,1.092,7.882,7.882,0,0,0,4.543-1.287,7.552,7.552,0,0,0,2.789-3.51h5.772a12.542,12.542,0,0,1-4.485,7.215A13.449,13.449,0,0,1,48.067.234a13.492,13.492,0,0,1-6.961-1.775,12.082,12.082,0,0,1-4.68-4.972,15.532,15.532,0,0,1-1.658-7.254,15.618,15.618,0,0,1,1.658-7.293,12.121,12.121,0,0,1,4.66-4.972A13.465,13.465,0,0,1,48.067-27.807Zm21.684,4.641v7.137H79.5v4.212h-9.75v7.41h10.92V0H64.253V-27.534H80.672v4.368Z" transform="translate(501 589)" fill="#fff"/><path d="M48.6,14.3a10,10,0,0,1,17.152,0L105.263,80.2a10,10,0,0,1-8.576,15.143H17.657A10,10,0,0,1,9.081,80.2Z" transform="translate(1680.447 746.162)" fill="#00ffb0"/><path d="M.017,3.457S308.943-.085,403.069,1.893" transform="translate(121.153 837.385)" fill="none" stroke="#00ffb0" stroke-width="6"/><path d="M0,0S308.911,8.317,402.971,7.791" transform="matrix(-0.999, 0.035, -0.035, -0.999, 534.026, 847.094)" fill="none" stroke="#00ffb0" stroke-width="5"/><g transform="translate(3.264 4.115)"><path d="M23.394,7.153a5,5,0,0,1,8.577,0L50.826,38.6a5,5,0,0,1-4.288,7.571H8.827A5,5,0,0,1,4.539,38.6Z" transform="translate(590.713 197.965) rotate(90)" fill="#00ffb0"/><path d="M23.394,7.153a5,5,0,0,1,8.577,0L50.826,38.6a5,5,0,0,1-4.288,7.571H8.827A5,5,0,0,1,4.539,38.6Z" transform="translate(639.676 197.965) rotate(90)" fill="#00ffb0" opacity="0.596"/><path d="M23.394,7.153a5,5,0,0,1,8.577,0L50.826,38.6a5,5,0,0,1-4.288,7.571H8.827A5,5,0,0,1,4.539,38.6Z" transform="translate(688.639 197.965) rotate(90)" fill="#00ffb0" opacity="0.299"/></g><g transform="matrix(1, 0, 0, 1, 0, 0)" filter="url(#a)"><rect width="584.219" height="584.219" rx="200" transform="matrix(0.97, -0.26, 0.26, 0.97, 1079.35, 219.56)" fill="#fff"/></g><path d="M953.188,497.988V383.847h-210.4V669.919H933.232v37.836H1066.7V497.988Zm93.552,171.932V687.8H953.188V669.919ZM983.086,586.41,997.2,600.523l35.8-35.8-35.8-35.8-14.111,14.113L994.8,554.751H953.188V517.942h93.552V649.965H953.188V574.7H994.8Zm-49.853,45.673v17.882H762.744V632.083Zm-170.489-210.4V403.8H933.232v17.882ZM903.336,543.03l-14.113-14.113-35.8,35.8,35.8,35.8L903.336,586.4l-11.71-11.713h41.606v37.435H762.744V441.639H933.233v113.1H891.627Z" transform="translate(426.843 149.375) rotate(-16)" fill="url(#c)"/></g></svg>